<svg width="13" height="14" viewBox="0 0 13 14" fill="none" xmlns="http://www.w3.org/2000/svg">
<g clip-path="url(#clip0)">
<path d="M6.16164 7.47297L6.16164 12.6933C6.16165 12.955 6.37372 13.167 6.63532 13.167C6.89693 13.167 7.10902 12.9549 7.10901 12.6933L7.10902 7.47295L12.3294 7.47295C12.591 7.47295 12.8031 7.26087 12.8031 6.99927C12.8031 6.73766 12.591 6.52558 12.3294 6.52559L7.10902 6.52559L7.10902 1.30521C7.10902 1.04359 6.89694 0.831517 6.63534 0.831529C6.37372 0.831529 6.16166 1.04362 6.16166 1.30521L6.16166 6.52559L0.941296 6.52557C0.679678 6.52557 0.467604 6.73767 0.467604 6.99926C0.467616 7.26087 0.67969 7.47294 0.941284 7.47294L6.16164 7.47297Z" fill="white"/>
</g>
<defs>
<clipPath id="clip0">
<rect width="9" height="9" fill="white" transform="translate(13 7) rotate(135)"/>
</clipPath>
</defs>
</svg>
