<svg width="10" height="10" viewBox="0 0 10 10" fill="none" xmlns="http://www.w3.org/2000/svg">
<g clip-path="url(#clip0)">
<path d="M5.29127 5.37138L8.93706 1.72559C9.11975 1.54288 9.11975 1.24666 8.93706 1.06397C8.75435 0.881264 8.45812 0.881264 8.27543 1.06397L4.62962 4.70977L0.983825 1.06397C0.801117 0.881264 0.504902 0.881264 0.322212 1.06397C0.139521 1.24668 0.139504 1.54289 0.322212 1.72559L3.968 5.37138L0.322212 9.01717C0.139504 9.19988 0.139504 9.4961 0.322212 9.67879C0.50492 9.8615 0.801134 9.86148 0.983825 9.67879L4.62962 6.03299L8.27539 9.67879C8.4581 9.8615 8.75433 9.86148 8.93702 9.67879C9.11971 9.49608 9.11971 9.19986 8.93702 9.01717L5.29127 5.37138Z" fill="#577BC3"/>
</g>
<defs>
<clipPath id="clip0">
<rect width="8.88889" height="8.88889" fill="white" transform="translate(0.185181 0.925934)"/>
</clipPath>
</defs>
</svg>
