<svg width="22" height="23" viewBox="0 0 22 23" fill="none" xmlns="http://www.w3.org/2000/svg">
<rect y="2.94873" width="21.2308" height="1.76923" rx="0.884615" fill="#FF5555"/>
<rect x="6.78198" width="7.66667" height="1.76923" rx="0.884615" fill="#FF5555"/>
<path fill-rule="evenodd" clip-rule="evenodd" d="M2.35889 3.83331H18.8717V20C18.8717 21.6568 17.5286 23 15.8717 23H5.35889C3.70203 23 2.35889 21.6568 2.35889 20V3.83331ZM7.66675 8.40382C7.66675 7.99669 7.99679 7.66664 8.40393 7.66664C8.81106 7.66664 9.14111 7.99669 9.14111 8.40382V17.5448C9.14111 17.952 8.81106 18.282 8.40393 18.282C7.99679 18.282 7.66675 17.952 7.66675 17.5448V8.40382ZM13.1217 7.66664C12.7146 7.66664 12.3845 7.99669 12.3845 8.40382V17.5448C12.3845 17.952 12.7146 18.282 13.1217 18.282C13.5288 18.282 13.8589 17.952 13.8589 17.5448V8.40382C13.8589 7.99669 13.5288 7.66664 13.1217 7.66664Z" fill="#FF5555"/>
</svg>
