<svg width="22" height="23" viewBox="0 0 22 23" fill="none" xmlns="http://www.w3.org/2000/svg">
<rect y="2.94873" width="21.2308" height="1.76923" rx="0.884615" fill="#C4C4C4"/>
<rect x="6.78198" width="7.66667" height="1.76923" rx="0.884615" fill="#C4C4C4"/>
<path fill-rule="evenodd" clip-rule="evenodd" d="M2.35889 3.83334H18.8717V20C18.8717 21.6569 17.5286 23 15.8717 23H5.35889C3.70203 23 2.35889 21.6569 2.35889 20V3.83334ZM7.66675 8.40385C7.66675 7.99672 7.99679 7.66667 8.40393 7.66667C8.81106 7.66667 9.14111 7.99672 9.14111 8.40385V17.5449C9.14111 17.952 8.81106 18.2821 8.40393 18.2821C7.99679 18.2821 7.66675 17.952 7.66675 17.5449V8.40385ZM13.1217 7.66667C12.7146 7.66667 12.3845 7.99672 12.3845 8.40385V17.5449C12.3845 17.952 12.7146 18.2821 13.1217 18.2821C13.5288 18.2821 13.8589 17.952 13.8589 17.5449V8.40385C13.8589 7.99672 13.5288 7.66667 13.1217 7.66667Z" fill="#C4C4C4"/>
</svg>
